<svg width="24" height="24" viewBox="0 0 24 24" fill="#FFFFFF" xmlns="http://www.w3.org/2000/svg" class="ltr-4z3qvp e1svuwfo1" data-name="Subtitles" aria-hidden="true">
    <path fill-rule="evenodd" clip-rule="evenodd" d="M1 3C1 2.44772 1.44772 2 2 2H22C22.5523 2 23 2.44772 23 3V17C23 17.5523 22.5523 18 22 18H19V21C19 21.3688 18.797 21.7077 18.4719 21.8817C18.1467 22.0557 17.7522 22.0366 17.4453 21.8321L11.6972 18H2C1.44772 18 1 17.5523 1 17V3ZM3 4V16H12H12.3028L12.5547 16.1679L17 19.1315V17V16H18H21V4H3ZM10 9L5 9V7L10 7V9ZM19 11H14V13H19V11ZM12 13L5 13V11L12 11V13ZM19 7H12V9H19V7Z" fill="#FFFFFF">
    </path>
</svg>