<svg width="24" height="24" viewBox="0 0 24 24" fill="none" xmlns="http://www.w3.org/2000/svg" className="svg-icon svg-icon-instagram-logo ltr-4z3qvp e1svuwfo1" data-name="Instagram" aria-hidden="true">
    <path fill-rule="evenodd" clip-rule="evenodd" d="M21.93 16.123C21.9584 17.6765 21.3789 19.1796 20.315 20.312C19.1851 21.3804 17.6797 21.9607 16.125 21.927C14.474 22.021 9.52499 22.021 7.87499 21.927C6.32126 21.9551 4.81792 21.3757 3.68499 20.312C2.61754 19.1819 2.03744 17.6772 2.06999 16.123C1.97699 14.472 1.97699 9.523 2.06999 7.873C2.03955 6.31886 2.61933 4.81466 3.68499 3.683C4.81767 2.61952 6.32162 2.04163 7.87499 2.073C9.52599 1.979 14.475 1.979 16.125 2.073C17.6789 2.04394 19.1826 2.62353 20.315 3.688C21.3825 4.81813 21.9625 6.32278 21.93 7.877C22.023 9.528 22.023 14.472 21.93 16.123ZM20.2 12C20.2 10.545 20.32 7.422 19.8 6.106C19.4572 5.23679 18.7692 4.54875 17.9 4.206C16.588 3.689 13.461 3.806 12.006 3.806C10.551 3.806 7.42799 3.685 6.11199 4.206C5.24298 4.54905 4.55505 5.23699 4.21199 6.106C3.69499 7.418 3.81199 10.545 3.81199 12C3.81199 13.455 3.69099 16.578 4.21199 17.894C4.55535 18.7628 5.24318 19.4506 6.11199 19.794C7.42399 20.311 10.552 20.194 12.006 20.194C13.46 20.194 16.584 20.315 17.9 19.794C18.769 19.451 19.4569 18.763 19.8 17.894C20.319 16.582 20.2 13.455 20.2 12ZM17.13 12C17.13 14.8312 14.8352 17.1264 12.004 17.127C9.17282 17.1276 6.8771 14.8332 6.87599 12.002C6.87489 9.17083 9.16882 6.87466 12 6.87299C13.3608 6.87034 14.6666 7.40959 15.629 8.37161C16.5914 9.33363 17.1311 10.6392 17.129 12H17.13ZM15.336 12C15.336 10.1596 13.8444 8.66756 12.004 8.667C10.1636 8.66645 8.6711 10.1576 8.66999 11.998C8.66889 13.8384 10.1596 15.3313 12 15.333C13.8406 15.3319 15.3328 13.8406 15.335 12H15.336ZM17.336 7.85901C16.6733 7.85901 16.136 7.32174 16.136 6.659C16.136 5.99626 16.6733 5.459 17.336 5.459C17.9987 5.459 18.536 5.99626 18.536 6.659C18.5379 6.97731 18.4124 7.28317 18.1876 7.50853C17.9628 7.73389 17.6573 7.86008 17.339 7.85901H17.336Z" fill="rgb(255,255,255)">
    </path>
</svg>