<svg width="24" height="24" viewBox="0 0 24 24" fill="none" xmlns="http://www.w3.org/2000/svg" className="svg-icon svg-icon-youtube-logo ltr-4z3qvp e1svuwfo1" data-name="Youtube" aria-hidden="true">
    <path fill-rule="evenodd" clip-rule="evenodd" d="M22.54 6.67C22.288 5.71873 21.549 4.97331 20.6 4.713C18.88 4.25 12 4.25 12 4.25C12 4.25 5.11997 4.25 3.39997 4.713C2.45094 4.97331 1.71199 5.71873 1.45997 6.67C1.14265 8.42869 0.988663 10.213 0.99997 12C0.988663 13.787 1.14265 15.5713 1.45997 17.33C1.71288 18.2825 2.45401 19.0282 3.40497 19.287C5.11997 19.75 12.005 19.75 12.005 19.75C12.005 19.75 18.885 19.75 20.6 19.287C21.549 19.0267 22.288 18.2813 22.54 17.33C22.8573 15.5713 23.0113 13.787 23 12C23.0113 10.213 22.8573 8.42869 22.54 6.67ZM9.74997 15.27V8.729L15.5 12L9.74997 15.27Z" fill="rgb(255,255,255)">
    </path>
</svg>