<svg width="24" height="24" viewBox="0 0 24 24" fill="none" xmlns="http://www.w3.org/2000/svg" className="svg-icon svg-icon-twitter-logo ltr-4z3qvp e1svuwfo1" data-name="Twitter" aria-hidden="true">
    <path fill-rule="evenodd" clip-rule="evenodd" d="M20.768 8.207C20.7914 11.5932 19.4565 14.8475 17.062 17.242C14.6675 19.6365 11.4132 20.9714 8.027 20.948C5.58923 20.9544 3.20152 20.2564 1.151 18.938C1.50998 18.9771 1.87091 18.9955 2.232 18.993C4.24768 18.9984 6.20639 18.3245 7.792 17.08C5.87438 17.0472 4.18971 15.799 3.6 13.974C3.87982 14.0187 4.16264 14.0421 4.446 14.044C4.84354 14.0428 5.23935 13.9914 5.624 13.891C3.53637 13.4667 2.0367 11.6303 2.038 9.5V9.441C2.65835 9.78765 3.3519 9.98262 4.062 10.01C2.08979 8.69332 1.48225 6.06954 2.675 4.02C4.94972 6.82016 8.30596 8.52336 11.909 8.706C11.8375 8.369 11.8009 8.02551 11.8 7.681C11.8014 5.84295 12.9248 4.19204 14.6341 3.51625C16.3434 2.84047 18.2921 3.2768 19.55 4.617C20.5522 4.42342 21.5131 4.05731 22.39 3.535C22.0556 4.56894 21.3555 5.44538 20.421 6C21.3102 5.89965 22.1795 5.66709 23 5.31C22.3866 6.20228 21.6273 6.98489 20.754 7.625C20.768 7.82 20.768 8.014 20.768 8.207Z" fill="rgb(255,255,255)">
    </path>
</svg>